<svg width="200" height="200" viewBox="0 0 200 200" xmlns="http://www.w3.org/2000/svg">
  <!-- Background Circle -->
  <circle cx="100" cy="100" r="95" fill="#e0e0e0" stroke="#000" stroke-width="2"/>
  
  <!-- Books -->
  <rect x="60" y="70" width="20" height="40" fill="#8b4513" stroke="#000" stroke-width="2"/>
  <rect x="80" y="70" width="20" height="40" fill="#cd853f" stroke="#000" stroke-width="2"/>
  <rect x="100" y="70" width="20" height="40" fill="#deb887" stroke="#000" stroke-width="2"/>
  
  <!-- Coffee Cup -->
  <rect x="140" y="60" width="20" height="30" fill="#fff" stroke="#000" stroke-width="2"/>
  <ellipse cx="150" cy="60" rx="10" ry="5" fill="#fff" stroke="#000" stroke-width="2"/>
  <path d="M140,60 Q145,40 160,60" fill="#fff" stroke="#000" stroke-width="2"/>
  
  <!-- Glasses -->
  <ellipse cx="80" cy="140" rx="10" ry="5" fill="#000"/>
  <ellipse cx="120" cy="140" rx="10" ry="5" fill="#000"/>
  <line x1="90" y1="140" x2="110" y2="140" stroke="#000" stroke-width="2"/>
  <line x1="70" y1="140" x2="60" y2="135" stroke="#000" stroke-width="2"/>
  <line x1="130" y1="140" x2="140" y2="135" stroke="#000" stroke-width="2"/>
  
  <!-- Science Symbols -->
  <text x="90" y="110" font-family="Arial" font-size="20" fill="#000">E=mc²</text>
  <circle cx="140" cy="130" r="5" fill="#ff0000" stroke="#000" stroke-width="2"/>
  <line x1="140" y1="130" x2="155" y2="140" stroke="#000" stroke-width="2"/>
  <circle cx="160" cy="145" r="5" fill="#00ff00" stroke="#000" stroke-width="2"/>
</svg>

